<svg width="24" height="24" viewBox="0 0 24 24" fill="none" xmlns="http://www.w3.org/2000/svg">
  <path d="M12 18.6L10.58 17.31C6.1 13.25 3.15 10.58 3.15 7.31C3.15 4.64 5.24 2.55 7.91 2.55C9.42 2.55 10.87 3.26 11.8 4.36C12.73 3.26 14.18 2.55 15.69 2.55C18.36 2.55 20.45 4.64 20.45 7.31C20.45 10.58 17.5 13.25 13.02 17.32L12 18.6Z" fill="#F59E0B"/>
  <path d="M12 18.6L10.58 17.31C6.1 13.25 3.15 10.58 3.15 7.31C3.15 4.64 5.24 2.55 7.91 2.55C9.42 2.55 10.87 3.26 11.8 4.36C12.73 3.26 14.18 2.55 15.69 2.55C18.36 2.55 20.45 4.64 20.45 7.31C20.45 10.58 17.5 13.25 13.02 17.32L12 18.6Z" stroke="#C47A00" stroke-width="1.4" stroke-linejoin="round"/>
</svg>
