<svg width="24" height="24" viewBox="0 0 24 24" fill="none" xmlns="http://www.w3.org/2000/svg">
  <path d="M5 10.25H19V17.25C19 18.22 18.22 19 17.25 19H6.75C5.78 19 5 18.22 5 17.25V10.25Z" stroke="#2065D1" stroke-width="1.8" stroke-linejoin="round"/>
  <path d="M4.5 8.25C4.5 7.56 5.06 7 5.75 7H18.25C18.94 7 19.5 7.56 19.5 8.25V9C19.5 9.69 18.94 10.25 18.25 10.25H5.75C5.06 10.25 4.5 9.69 4.5 9V8.25Z" stroke="#2065D1" stroke-width="1.8"/>
  <path d="M12 7V19" stroke="#2065D1" stroke-width="1.8" stroke-linecap="round"/>
  <path d="M12 7H9.7C8.76 7 8 6.24 8 5.3C8 4.59 8.58 4 9.3 4C10.11 4 10.72 4.49 11.24 5.22L12 6.3V7Z" stroke="#00A76F" stroke-width="1.8" stroke-linecap="round" stroke-linejoin="round"/>
  <path d="M12 7H14.3C15.24 7 16 6.24 16 5.3C16 4.59 15.42 4 14.7 4C13.89 4 13.28 4.49 12.76 5.22L12 6.3V7Z" stroke="#00A76F" stroke-width="1.8" stroke-linecap="round" stroke-linejoin="round"/>
</svg>
